<svg width="800" height="800" viewBox="0 0 16 16" xmlns="http://www.w3.org/2000/svg">
    <path
        d="M7.3 2.68V7h1.4V2.68l.93.93 1-1L8 0 5.38 2.62l1 1 .92-.94zm1.4 10.63V9H7.3v4.3l-.93-.92-1 1L8 16l2.62-2.61-1-1-.92.92zm4.68-7.93l-1 1 .93.93H9V8.7h4.3l-.92.92 1 1L16 8l-2.62-2.62zM7 8.7V7.3H2.68l.93-.93-1-1L0 8l2.61 2.61 1-1-.92-.91H7z" />
    <style>
        @media (prefers-color-scheme: light) {
            :root {
                filter: none;
            }
        }

        @media (prefers-color-scheme: dark) {
            :root {
                filter: invert(100%);
            }
        }
    </style>
</svg>